<svg width="33" height="32" viewBox="0 0 33 32" fill="none" xmlns="http://www.w3.org/2000/svg">
<g clip-path="url(#clip0_0_55)">
<path d="M30.7258 7.83569H11.5457C10.5192 7.83569 9.6825 8.66218 9.6825 9.68012V22.6742C9.6825 23.6922 10.5192 24.5187 11.5457 24.5187H18.2974V27.0524H16.6497C16.3858 27.0524 16.167 27.2662 16.167 27.531C16.167 27.7959 16.3858 28.0098 16.6497 28.0098H25.6187C25.8857 28.0098 26.1014 27.7959 26.1014 27.531C26.1014 27.2662 25.8857 27.0524 25.6187 27.0524H23.971V24.5187H30.7258C31.7524 24.5187 32.5858 23.6922 32.5858 22.6742V9.68018C32.5859 8.66218 31.7524 7.83569 30.7258 7.83569ZM31.6205 20.265H10.6479V9.68018C10.6479 9.19192 11.0502 8.79308 11.5457 8.79308H30.7259C31.2183 8.79308 31.6205 9.19198 31.6205 9.68018V20.265Z" fill="white"/>
<path d="M6.92181 8.69813C7.45512 8.69813 7.88912 8.26778 7.88912 7.73896C7.88912 7.21014 7.45512 6.77979 6.92181 6.77979H1.37024V8.69819L6.92181 8.69813ZM4.36182 7.26029H5.86372C6.13022 7.26029 6.34644 7.4747 6.34644 7.73896C6.34644 8.00321 6.13022 8.21762 5.86372 8.21762H4.36182C4.09532 8.21762 3.8791 8.00321 3.8791 7.73896C3.8791 7.4747 4.09526 7.26029 4.36182 7.26029Z" fill="white"/>
<path d="M7.17067 16.6566C6.88972 16.6566 6.66089 16.8848 6.66089 17.1652C6.66089 17.4438 6.88972 17.6706 7.17067 17.6706C7.45349 17.6706 7.68355 17.4438 7.68355 17.1652C7.68355 16.8847 7.45349 16.6566 7.17067 16.6566Z" fill="white"/>
<path d="M11.546 7.19768H12.9716V5.24155C12.9716 4.22361 12.1381 3.39392 11.1116 3.39392H3.23036C2.20379 3.39392 1.3703 4.22361 1.3703 5.24155V5.82237H6.92188C7.98755 5.82237 8.85462 6.68215 8.85462 7.73887C8.85462 8.79558 7.98755 9.65536 6.92188 9.65536H1.37024V26.5069C1.37024 27.3334 2.04926 28.0099 2.88598 28.0099H11.4559C12.2926 28.0099 12.9716 27.3334 12.9716 26.5069V25.157H11.546C10.1622 25.157 9.03907 24.0433 9.03907 22.6744V9.68035C9.03907 8.31132 10.1622 7.19768 11.546 7.19768ZM7.16982 18.6282C6.3565 18.6282 5.6946 17.9719 5.6946 17.1653C5.6946 16.3569 6.35643 15.6994 7.16982 15.6994C7.98507 15.6994 8.64814 16.3569 8.64814 17.1653C8.64814 17.9719 7.98501 18.6282 7.16982 18.6282ZM7.16982 14.7056C6.3565 14.7056 5.6946 14.0493 5.6946 13.2428C5.6946 12.4344 6.35643 11.7769 7.16982 11.7769C7.98507 11.7769 8.64814 12.4345 8.64814 13.2428C8.64814 14.0493 7.98501 14.7056 7.16982 14.7056Z" fill="white"/>
<path d="M7.17067 12.7344C6.88972 12.7344 6.66089 12.9625 6.66089 13.243C6.66089 13.5216 6.88972 13.7484 7.17067 13.7484C7.45349 13.7484 7.68355 13.5216 7.68355 13.243C7.68355 12.9625 7.45349 12.7344 7.17067 12.7344Z" fill="white"/>
</g>
<defs>
<clipPath id="clip0_0_55">
<rect width="32" height="25.2121" fill="white" transform="translate(0.910034 3.39392)"/>
</clipPath>
</defs>
</svg>
