<svg width="32" height="32" viewBox="0 0 32 32" fill="none" xmlns="http://www.w3.org/2000/svg">
<path d="M13.4995 19.0674L15.4277 20.6685L11.8183 23.6731L10.9666 22.8317C10.7956 22.6527 10.5614 22.5366 10.3144 22.5083L10.0611 22.477L13.4995 19.0674Z" fill="white"/>
<path d="M10.878 16.8821L12.7713 18.4581L9.39306 21.8081L9.36143 21.5631C9.32974 21.3151 9.21263 21.0828 9.04166 20.9227L8.18048 20.0687L10.878 16.8821Z" fill="white"/>
<path d="M31.2773 1.26286L31.0272 7.49174C31.0208 7.62361 30.9607 7.74604 30.8562 7.83395L21.0444 15.9968L19.0149 13.5982L25.3598 7.30653C25.5466 7.12132 25.5466 6.823 25.3598 6.64094C25.1761 6.45572 24.8754 6.45572 24.6886 6.64094L18.4038 12.8729L16.3364 10.4303L24.1567 1.18748C24.2454 1.08703 24.3688 1.02733 24.5018 1.0211L30.7834 0.773097C30.9164 0.769949 31.043 0.817054 31.138 0.911265C31.233 1.00548 31.2836 1.13099 31.2773 1.26286Z" fill="white"/>
<path d="M13.9523 29.4435C13.8636 29.5314 13.7401 29.5817 13.6166 29.5817C13.5976 29.5817 13.5755 29.5817 13.5565 29.5785L11.1344 29.2771C11.0267 29.2646 10.9317 29.2175 10.8558 29.1421L8.34184 26.6524L4.38418 30.5769C3.49357 31.4599 2.07303 31.4279 1.22125 30.5769C0.353661 29.7228 0.341143 28.3131 1.22125 27.4405L5.17892 23.516L2.66817 21.0232C2.59221 20.9479 2.54471 20.8536 2.53201 20.7469L2.22806 18.3451C2.20907 18.2007 2.25969 18.0563 2.36422 17.9527C2.46869 17.8491 2.61432 17.802 2.76 17.8176L5.1821 18.119C5.28657 18.1316 5.38469 18.1787 5.46071 18.2541L8.59518 21.3654C8.67114 21.4376 8.71864 21.5349 8.73134 21.6385L8.89913 22.9634L10.2352 23.1298C10.3397 23.1424 10.4379 23.1894 10.5107 23.2648L13.6483 26.373C13.7243 26.4483 13.7718 26.5457 13.7845 26.6493L14.0884 29.051C14.1042 29.1954 14.0567 29.3398 13.9523 29.4435Z" fill="white"/>
<path d="M30.6219 30.5768C29.7692 31.4287 28.3487 31.4591 27.459 30.5768L23.5013 26.6524L20.9874 29.1421C20.9114 29.2174 20.8164 29.2645 20.7088 29.2771L18.2867 29.5785C18.2677 29.5816 18.2455 29.5816 18.2266 29.5816C18.1031 29.5816 17.9796 29.5314 17.8909 29.4435C17.7864 29.3399 17.7389 29.1954 17.7547 29.0542L18.0587 26.6492C18.0713 26.5456 18.1188 26.4483 18.1949 26.373L21.3325 23.2648C21.4053 23.1894 21.5035 23.1423 21.6079 23.1298L22.944 22.9634L23.1118 21.6385C23.1245 21.5349 23.172 21.4376 23.248 21.3654L26.3825 18.254C26.4585 18.1787 26.5566 18.1316 26.6611 18.119L29.0863 17.8176C29.232 17.7988 29.3745 17.849 29.479 17.9526C29.5834 18.0562 29.6341 18.2007 29.6151 18.3451L29.3112 20.7469C29.2985 20.8536 29.251 20.9478 29.175 21.0231L26.6642 23.516L30.6219 27.4405C31.4926 28.3069 31.4926 29.7134 30.6219 30.5768Z" fill="white"/>
<path d="M6.48246 7.30604C6.29696 7.12222 6.29696 6.82391 6.48246 6.64009C6.66796 6.45615 6.96849 6.45615 7.15405 6.64009L22.453 21.8104L22.485 21.56C22.5135 21.3152 22.6306 21.0828 22.8079 20.9133L23.6627 20.0656L7.68648 1.18748C7.59783 1.08703 7.47437 1.02733 7.34138 1.0211L1.0598 0.773097C0.926877 0.769949 0.797 0.817054 0.705228 0.911205C0.61022 1.00542 0.559602 1.13099 0.565892 1.26286L0.815987 7.49174C0.822337 7.62361 0.882487 7.74604 0.983777 7.83395L20.0248 23.673L20.886 22.8222C21.0475 22.6527 21.2818 22.5365 21.5319 22.5051L21.7797 22.4747L6.48246 7.30604Z" fill="white"/>
</svg>
